<svg width="40" height="40" viewBox="0 0 40 40" fill="none" xmlns="http://www.w3.org/2000/svg">
<path d="M19.9997 37.9168C10.1163 37.9168 2.08301 29.8835 2.08301 20.0002C2.08301 10.1168 10.1163 2.0835 19.9997 2.0835C29.883 2.0835 37.9163 10.1168 37.9163 20.0002C37.9163 29.8835 29.883 37.9168 19.9997 37.9168ZM19.9997 4.5835C11.4997 4.5835 4.58301 11.5002 4.58301 20.0002C4.58301 28.5002 11.4997 35.4168 19.9997 35.4168C28.4997 35.4168 35.4163 28.5002 35.4163 20.0002C35.4163 11.5002 28.4997 4.5835 19.9997 4.5835Z" fill="#292D32"/>
<path d="M15.2829 25.9668C14.9663 25.9668 14.6496 25.8501 14.3996 25.6001C13.9163 25.1168 13.9163 24.3168 14.3996 23.8334L23.8329 14.4001C24.3163 13.9168 25.1163 13.9168 25.5996 14.4001C26.0829 14.8834 26.0829 15.6834 25.5996 16.1668L16.1663 25.6001C15.9329 25.8501 15.5996 25.9668 15.2829 25.9668Z" fill="#292D32"/>
<path d="M24.7163 25.9668C24.3996 25.9668 24.0829 25.8501 23.8329 25.6001L14.3996 16.1668C13.9163 15.6834 13.9163 14.8834 14.3996 14.4001C14.8829 13.9168 15.6829 13.9168 16.1663 14.4001L25.5996 23.8334C26.0829 24.3168 26.0829 25.1168 25.5996 25.6001C25.3496 25.8501 25.0329 25.9668 24.7163 25.9668Z" fill="#292D32"/>
</svg>
